<svg xmlns="http://www.w3.org/2000/svg" width="420" height="420" viewBox="0 0 420 420">
  <rect width="420" height="420" fill="#fff"/>
  <rect x="24" y="24" width="372" height="372" rx="18" fill="#fff" stroke="#2b211b" stroke-width="10"/>
  <g fill="#2b211b">
    <rect x="54" y="54" width="96" height="96"/>
    <rect x="78" y="78" width="48" height="48" fill="#fff"/>
    <rect x="270" y="54" width="96" height="96"/>
    <rect x="294" y="78" width="48" height="48" fill="#fff"/>
    <rect x="54" y="270" width="96" height="96"/>
    <rect x="78" y="294" width="48" height="48" fill="#fff"/>
    <rect x="174" y="54" width="24" height="24"/>
    <rect x="222" y="54" width="24" height="24"/>
    <rect x="174" y="102" width="72" height="24"/>
    <rect x="198" y="150" width="24" height="72"/>
    <rect x="246" y="174" width="48" height="24"/>
    <rect x="318" y="174" width="48" height="24"/>
    <rect x="174" y="246" width="24" height="48"/>
    <rect x="222" y="246" width="48" height="24"/>
    <rect x="294" y="246" width="24" height="48"/>
    <rect x="342" y="246" width="24" height="24"/>
    <rect x="174" y="318" width="48" height="24"/>
    <rect x="246" y="318" width="24" height="48"/>
    <rect x="294" y="318" width="72" height="24"/>
    <rect x="174" y="366" width="24" height="24"/>
    <rect x="222" y="366" width="24" height="24"/>
    <rect x="318" y="366" width="48" height="24"/>
  </g>
  <rect x="135" y="185" width="150" height="50" rx="8" fill="#fff"/>
  <text x="210" y="206" text-anchor="middle" font-family="Arial, sans-serif" font-size="13" font-weight="700" fill="#5c341f">QR GENERICO</text>
  <text x="210" y="224" text-anchor="middle" font-family="Arial, sans-serif" font-size="12" fill="#5c341f">PAGO DEMO</text>
</svg>
